# xmcd
#
# Track frame offsets:
#	150
#	14296
#	31320
#	51268
#	64983
#	80605
#	100348
#	112775
#	131002
#	143393
#	158801
#	172204
#
# Disc length: 2553 seconds
#
# Revision: 1
# Processed by: cddbd v1.5.2PL0 Copyright (c) Steve Scherf et al.
# Submitted via: audiograbber 1.83.01
#
DISCID=9c09f70c
DTITLE=Various Artist - CD TEX Vol. 70 October 2008
DYEAR=2008
DGENRE=Country Rock
TTITLE0=Jay Boy Adams and The Roadhouse Scholars w/ Bill Worrell and Big John Hol
TTITLE0=iday - Are You Voting For The Devil
TTITLE1=Tommy Alverson - This Buzz Is For You
TTITLE2=Waylon Jennings And The 357's - Lonesome On'ry And Mean
TTITLE3=Steve Helms Band - What's It Gonna Take
TTITLE4=Randy Brown - All Liquored Up
TTITLE5=80 Proof Band - Maybe
TTITLE6=Ace Diamond - Elvis, Jerry Lee And Me
TTITLE7=Jerry Lee Surber - Try To Go The Distance Together
TTITLE8=Chris Blackburn - Why'd You Ever Let Her Go?
TTITLE9=Luke Robinson - What I Tell Myself
TTITLE10=Billy Mata And The Texas Tradition - Stay A Little Longer
TTITLE11=Johnny Bush, Willie Nelson - I Gotta Get Drunk
EXTD=
EXTT0=
EXTT1=
EXTT2=
EXTT3=
EXTT4=
EXTT5=
EXTT6=
EXTT7=
EXTT8=
EXTT9=
EXTT10=
EXTT11=
PLAYORDER=
